<svg xmlns="http://www.w3.org/2000/svg" viewBox="0 0 409.14 37.94"><defs><style>.cls-1{fill:#231f20;}.cls-2{fill:#005b97;}.cls-3{fill:#008ace;}</style></defs><g id="Layer_2" data-name="Layer 2"><g id="Layer_1-2" data-name="Layer 1"><path class="cls-1" d="M312.82,8H292.63l-1.52,4.58h9.09V29.13h4.58V12.61h7.41L313.73,8ZM141.72,8h-20.2L120,12.61h9.09V29.13h4.58V12.61h7.41L142.63,8Zm-26.53.16h-3.93V29.91h4.59V8.19Zm258,0a10.48,10.48,0,0,0-8.25,4.1,10.48,10.48,0,0,0-18.8,6.44v11h4.58v-11a6,6,0,0,1,11.93-.1V29.79h4.6v-11a6,6,0,1,1,11.91,0v11h4.58v-11A10.55,10.55,0,0,0,373.16,8.23Zm-112.24,0H257v2.52a6,6,0,1,1-11.94,0V8.23h-4.58v2.52A10.44,10.44,0,0,0,249.22,21V29.6h4.58V20.83a10.54,10.54,0,0,0,7.78-10.08V8.23Zm-94.11,0h-3.92v2.52a6,6,0,1,1-11.93,0V8.23h-4.59v2.52A10.46,10.46,0,0,0,155.1,21V29.6h4.58V20.83a10.55,10.55,0,0,0,7.79-10.08V8.23Zm-61,0h-3.93v11a6,6,0,0,1-11.94,0v-11H85.37v11a10.55,10.55,0,0,0,21.1,0v-11Zm-45,10.54v11h4.58v-11a6,6,0,0,1,11.93,0v11h4.57v-11a10.54,10.54,0,0,0-21.08,0ZM407.73,8.4H393.25a6.49,6.49,0,0,0,0,13h9.4a1.89,1.89,0,1,1,0,3.78H388.5l-1.44,4.35,1,.23,14.58,0a6.49,6.49,0,1,0,0-13h-9.4a1.9,1.9,0,1,1,0-3.79h13.86l1.52-4.59ZM286.3,8.4H271.83a6.49,6.49,0,0,0,0,13h9.41a1.89,1.89,0,1,1,0,3.78H267.07l-1.47,4.59h15.64a6.49,6.49,0,0,0,0-13h-9.41a1.9,1.9,0,1,1,0-3.79h13.84l1.54-4.59ZM235,8.4H220.56a6.49,6.49,0,0,0,0,13H230a1.89,1.89,0,1,1,0,3.78H215.81l-1.5,4.59H230a6.49,6.49,0,1,0,0-13h-9.41a1.9,1.9,0,1,1,0-3.79h13.86L236,8.4Zm104.67.11H327.38a10.55,10.55,0,1,0,0,21.09h13L341.88,25h-14.5A5.9,5.9,0,0,1,322,21.34h17.67l1.52-4.58H322a5.91,5.91,0,0,1,5.42-3.68H339.1l1.52-4.57Zm-284.45,0H42.92a10.55,10.55,0,0,0,0,21.09h13L57.42,25H42.92a5.91,5.91,0,0,1-5.41-3.67H55.2l1.52-4.58H37.51a5.9,5.9,0,0,1,5.41-3.68H54.65l1.52-4.57Zm-44.71,0a10.55,10.55,0,1,0,0,21.09h7.78A10.56,10.56,0,0,0,28.88,19.05V16.76H15.1v4.58h8.6A5.88,5.88,0,0,1,18.33,25H10.55a6,6,0,1,1,0-11.93h7.78a6,6,0,0,1,5,2.73l3.84-2.5a10.5,10.5,0,0,0-8.85-4.8Z"/><path class="cls-2" d="M184.67,24.77l13.9-13.87,3.22,3.21L203.86,0,189.74,2.08,193,5.29l-9.51,9.52S179.26,19.36,184.67,24.77Z"/><path class="cls-3" d="M196.28,13.17,182.39,27l-3.22-3.21-2.08,14.11,14.12-2.08L188,32.65l9.51-9.52S201.7,18.58,196.28,13.17Z"/></g></g></svg>