<?xml version="1.0" encoding="utf-8"?>
<!-- Generator: Adobe Illustrator 26.0.0, SVG Export Plug-In . SVG Version: 6.00 Build 0)  -->
<svg version="1.1" id="Layer_1" xmlns="http://www.w3.org/2000/svg" xmlns:xlink="http://www.w3.org/1999/xlink" x="0px" y="0px"
	 viewBox="0 0 61 61" style="enable-background:new 0 0 61 61;" xml:space="preserve">
<style type="text/css">
	.st0{fill:#005B97;}
	.st1{fill:#008ACE;}
	.st2{fill:none;stroke:#000000;stroke-miterlimit:10;}
	.st3{fill:none;stroke:#000000;stroke-miterlimit:10;stroke-dasharray:2.0121,2.0121;}
	.st4{fill:none;stroke:#005B97;stroke-width:1.5;stroke-miterlimit:10;}
	.st5{fill:none;stroke:#008ACE;stroke-width:1.5;stroke-miterlimit:10;}
</style>
<g>
	<rect x="-796.9" y="-361.4" width="231.6" height="0.6"/>
	<g>
		<path d="M-789.9-347.4c-0.5,0.2-1.4,0.4-2.5,0.4c-1.2,0-2.2-0.3-3-1.1c-0.7-0.7-1.1-1.8-1.1-3c0-2.4,1.7-4.2,4.3-4.2
			c0.9,0,1.7,0.2,2,0.4l-0.2,0.9c-0.4-0.2-1-0.4-1.8-0.4c-1.9,0-3.2,1.2-3.2,3.3c0,2.1,1.2,3.3,3.1,3.3c0.7,0,1.1-0.1,1.4-0.2v-2.4
			h-1.6v-0.8h2.6V-347.4z"/>
	</g>
	<g>
		<path d="M-780.5-349.8c0,1.4,0.9,2,2,2c0.7,0,1.2-0.1,1.6-0.3l0.2,0.8c-0.4,0.2-1,0.4-1.9,0.4c-1.8,0-2.8-1.2-2.8-2.9
			s1-3.2,2.7-3.2c1.9,0,2.4,1.7,2.4,2.8c0,0.2,0,0.4,0,0.5H-780.5z M-777.5-350.6c0-0.7-0.3-1.7-1.5-1.7c-1.1,0-1.5,1-1.6,1.7
			H-777.5z"/>
		<path d="M-768-351.3c0-0.6,0-1.1,0-1.6h0.9l0.1,1h0c0.3-0.6,1-1.1,1.9-1.1c0.8,0,2,0.5,2,2.5v3.5h-1v-3.4c0-0.9-0.3-1.7-1.3-1.7
			c-0.7,0-1.2,0.5-1.4,1.1c0,0.1-0.1,0.3-0.1,0.5v3.5h-1V-351.3z"/>
		<path d="M-749.5-348.7c0,0.6,0,1.1,0,1.6h-0.9l-0.1-1h0c-0.3,0.5-0.9,1.1-1.9,1.1c-0.9,0-2-0.5-2-2.6v-3.4h1v3.2
			c0,1.1,0.3,1.9,1.3,1.9c0.7,0,1.2-0.5,1.4-1c0.1-0.2,0.1-0.4,0.1-0.5v-3.6h1V-348.7z"/>
		<path d="M-739.5-354.6c0,0.4-0.2,0.7-0.7,0.7c-0.4,0-0.6-0.3-0.6-0.7c0-0.4,0.3-0.7,0.7-0.7C-739.7-355.2-739.5-354.9-739.5-354.6
			z M-740.6-347.1v-5.8h1v5.8H-740.6z"/>
	</g>
	<g>
		<path d="M-729.8-354.6v1.7h1.5v0.8h-1.5v3.2c0,0.7,0.2,1.1,0.8,1.1c0.3,0,0.5,0,0.6-0.1l0,0.8c-0.2,0.1-0.5,0.1-0.9,0.1
			c-0.5,0-0.9-0.2-1.1-0.4c-0.3-0.3-0.4-0.8-0.4-1.5v-3.2h-0.9v-0.8h0.9v-1.4L-729.8-354.6z"/>
	</g>
	<g>
		<path d="M-719.2-352.6l1.3,3.5c0.1,0.4,0.3,0.8,0.4,1.2h0c0.1-0.4,0.2-0.8,0.4-1.2l1.1-3.4h1.1l-1.6,4.2c-0.7,2-1.3,3-2,3.7
			c-0.5,0.5-1,0.6-1.3,0.7l-0.3-0.9c0.3-0.1,0.6-0.3,0.9-0.5c0.3-0.2,0.6-0.6,0.9-1.2c0-0.1,0.1-0.2,0.1-0.3c0-0.1,0-0.1-0.1-0.3
			l-2.1-5.4H-719.2z"/>
	</g>
	<g>
		<path d="M-697.3-348.3c0.5,0.3,1.1,0.5,1.9,0.5c1.1,0,1.7-0.6,1.7-1.4c0-0.8-0.4-1.2-1.5-1.6c-1.3-0.5-2.1-1.2-2.1-2.3
			c0-1.3,1-2.2,2.6-2.2c0.8,0,1.4,0.2,1.8,0.4l-0.3,0.9c-0.3-0.1-0.8-0.4-1.5-0.4c-1.1,0-1.5,0.7-1.5,1.2c0,0.8,0.5,1.1,1.6,1.6
			c1.4,0.5,2,1.2,2,2.4c0,1.3-0.9,2.3-2.8,2.3c-0.8,0-1.6-0.2-2-0.5L-697.3-348.3z"/>
	</g>
	<g>
		<path d="M-683.9-352l1.3,3.5c0.1,0.4,0.3,0.8,0.4,1.2h0c0.1-0.4,0.2-0.8,0.4-1.2l1.1-3.4h1.1l-1.6,4.2c-0.7,2-1.3,3-2,3.7
			c-0.5,0.5-1,0.6-1.3,0.7l-0.3-0.9c0.3-0.1,0.6-0.3,0.9-0.5c0.3-0.2,0.6-0.6,0.9-1.2c0-0.1,0.1-0.2,0.1-0.3c0-0.1,0-0.1-0.1-0.3
			l-2.1-5.4H-683.9z"/>
	</g>
	<g>
		<path d="M-671.7-348.1c0.3,0.2,0.9,0.4,1.4,0.4c0.8,0,1.1-0.4,1.1-0.9c0-0.5-0.3-0.8-1.1-1.1c-1-0.4-1.5-1-1.5-1.7
			c0-0.9,0.7-1.7,2-1.7c0.6,0,1.1,0.2,1.4,0.4l-0.3,0.8c-0.2-0.1-0.6-0.3-1.2-0.3c-0.6,0-1,0.4-1,0.8c0,0.5,0.3,0.7,1.1,1
			c1,0.4,1.5,0.9,1.5,1.8c0,1-0.8,1.8-2.2,1.8c-0.6,0-1.2-0.2-1.6-0.4L-671.7-348.1z"/>
	</g>
	<g>
		<path d="M-658.3-354.6v1.7h1.5v0.8h-1.5v3.2c0,0.7,0.2,1.1,0.8,1.1c0.3,0,0.5,0,0.6-0.1l0,0.8c-0.2,0.1-0.5,0.1-0.9,0.1
			c-0.5,0-0.9-0.2-1.1-0.4c-0.3-0.3-0.4-0.8-0.4-1.5v-3.2h-0.9v-0.8h0.9v-1.4L-658.3-354.6z"/>
	</g>
	<g>
		<path d="M-648.2-349.6c0,1.4,0.9,2,2,2c0.7,0,1.2-0.1,1.6-0.3l0.2,0.8c-0.4,0.2-1,0.4-1.9,0.4c-1.8,0-2.8-1.2-2.8-2.9
			s1-3.2,2.7-3.2c1.9,0,2.4,1.7,2.4,2.8c0,0.2,0,0.4,0,0.5H-648.2z M-645.1-350.4c0-0.7-0.3-1.7-1.5-1.7c-1.1,0-1.5,1-1.6,1.7
			H-645.1z"/>
		<path d="M-635.7-351.1c0-0.6,0-1.1,0-1.6h0.9l0,0.9h0c0.3-0.6,0.9-1.1,1.8-1.1c0.8,0,1.4,0.5,1.6,1.2h0c0.2-0.3,0.4-0.6,0.6-0.8
			c0.3-0.3,0.7-0.4,1.3-0.4c0.8,0,1.9,0.5,1.9,2.5v3.4h-1v-3.3c0-1.1-0.4-1.8-1.2-1.8c-0.6,0-1.1,0.4-1.2,1c0,0.1-0.1,0.3-0.1,0.5
			v3.6h-1v-3.5c0-0.9-0.4-1.6-1.2-1.6c-0.7,0-1.1,0.5-1.3,1.1c-0.1,0.2-0.1,0.3-0.1,0.5v3.5h-1V-351.1z"/>
		<path d="M-618.8-348c0.3,0.2,0.9,0.4,1.4,0.4c0.8,0,1.1-0.4,1.1-0.9c0-0.5-0.3-0.8-1.1-1.1c-1-0.4-1.5-1-1.5-1.7
			c0-0.9,0.7-1.7,2-1.7c0.6,0,1.1,0.2,1.4,0.4l-0.3,0.8c-0.2-0.1-0.6-0.3-1.2-0.3c-0.6,0-1,0.4-1,0.8c0,0.5,0.3,0.7,1.1,1
			c1,0.4,1.5,0.9,1.5,1.8c0,1-0.8,1.8-2.2,1.8c-0.6,0-1.2-0.2-1.6-0.4L-618.8-348z"/>
		<path d="M-597.1-355h1v7.3h3.4v0.9h-4.5V-355z"/>
	</g>
	<g>
		<path d="M-583.1-354.4v1.7h1.5v0.8h-1.5v3.2c0,0.7,0.2,1.1,0.8,1.1c0.3,0,0.5,0,0.6-0.1l0,0.8c-0.2,0.1-0.5,0.1-0.9,0.1
			c-0.5,0-0.9-0.2-1.1-0.4c-0.3-0.3-0.4-0.8-0.4-1.5v-3.2h-0.9v-0.8h0.9v-1.4L-583.1-354.4z"/>
	</g>
	<g>
		<path d="M-568.4-355.4v7.1c0,0.5,0,1.1,0,1.5h-0.9l0-1h0c-0.3,0.7-1,1.1-2,1.1c-1.4,0-2.5-1.2-2.5-3c0-1.9,1.2-3.1,2.6-3.1
			c0.9,0,1.5,0.4,1.7,0.9h0v-3.5H-568.4z M-569.5-350.3c0-0.1,0-0.3,0-0.4c-0.2-0.7-0.7-1.2-1.5-1.2c-1.1,0-1.7,1-1.7,2.3
			c0,1.2,0.6,2.2,1.7,2.2c0.7,0,1.3-0.5,1.5-1.3c0-0.1,0-0.3,0-0.5V-350.3z"/>
	</g>
	<g>
		<path d="M-567.2-347.5c0-0.4,0.3-0.8,0.7-0.8c0.4,0,0.7,0.3,0.7,0.8c0,0.4-0.3,0.8-0.7,0.8C-566.9-346.7-567.2-347.1-567.2-347.5z
			"/>
	</g>
	<g>
		<path d="M-619.8-381.3h-11.4l-0.9,2.6c0,0,4.5,0,5.1,0c0,0.7,0,9.4,0,9.4h2.6c0,0,0-8.7,0-9.4c0.6,0,4.2,0,4.2,0l0.9-2.6H-619.8z
			 M-716.7-381.3h-11.4l-0.9,2.6c0,0,4.5,0,5.1,0c0,0.7,0,9.4,0,9.4h2.6c0,0,0-8.7,0-9.4c0.6,0,4.2,0,4.2,0l0.9-2.6H-716.7z
			 M-731.7-381.2h-2.2v12.3h2.6v-12.3H-731.7z M-585.6-381.1c-1.8,0-3.5,0.9-4.7,2.3c-1.1-1.4-2.8-2.3-4.7-2.3c-3.3,0-6,2.7-6,6v6.2
			h2.6v-6.2c0-1.9,1.5-3.4,3.4-3.4c1.8,0,3.3,1.5,3.4,3.3l0,6.3h2.6v-6.2c0.1-1.9,1.5-3.4,3.4-3.4c1.9,0,3.4,1.5,3.4,3.4v6.2h2.6
			v-6.2C-579.7-378.5-582.3-381.1-585.6-381.1L-585.6-381.1z M-649.2-381.1h-2.2v1.4c0,1.9-1.5,3.4-3.4,3.4c-1.9,0-3.4-1.5-3.4-3.4
			v-1.4h-2.6v1.4c0,2.9,2.1,5.3,4.9,5.8c0,0.5,0,4.9,0,4.9h2.6c0,0,0-4.5,0-5c2.6-0.7,4.4-3,4.4-5.7v-1.4H-649.2z M-702.5-381.1
			h-2.2v1.4c0,1.9-1.5,3.4-3.4,3.4c-1.9,0-3.4-1.5-3.4-3.4v-1.4h-2.6v1.4c0,2.9,2.1,5.3,4.9,5.8c0,0.5,0,4.9,0,4.9h2.6
			c0,0,0-4.5,0-5c2.6-0.7,4.4-3,4.4-5.7v-1.4H-702.5z M-737-381.1h-2.2v6.2c0,1.9-1.5,3.4-3.4,3.4c-1.9,0-3.4-1.5-3.4-3.4v-6.2h-2.6
			v6.2c0,3.3,2.7,6,6,6c3.3,0,6-2.7,6-6v-6.2H-737z M-762.5-375.2v6.2h2.6v-6.2c0-1.9,1.5-3.4,3.4-3.4c1.9,0,3.4,1.5,3.4,3.4v6.2
			h2.6v-6.2c0-3.3-2.7-6-6-6C-759.8-381.1-762.5-378.5-762.5-375.2z M-566.1-381h-8.2c-2,0-3.7,1.6-3.7,3.7c0,2,1.6,3.7,3.7,3.7h5.3
			c0.6,0,1.1,0.5,1.1,1.1c0,0.6-0.5,1.1-1.1,1.1h-8l-0.8,2.5l0.6,0.1l8.3,0c2,0,3.7-1.6,3.7-3.7c0-2-1.6-3.7-3.7-3.7h-5.3
			c-0.6,0-1.1-0.5-1.1-1.1c0-0.6,0.5-1.1,1.1-1.1h7.9l0.9-2.6H-566.1z M-634.8-381h-8.2c-2,0-3.7,1.6-3.7,3.7c0,2,1.6,3.7,3.7,3.7
			h5.3c0.6,0,1.1,0.5,1.1,1.1c0,0.6-0.5,1.1-1.1,1.1h-8l-0.8,2.6l8.9,0c2,0,3.7-1.6,3.7-3.7c0-2-1.6-3.7-3.7-3.7h-5.3
			c-0.6,0-1.1-0.5-1.1-1.1c0-0.6,0.5-1.1,1.1-1.1h7.8l0.9-2.6H-634.8z M-663.8-381h-8.2c-2,0-3.7,1.6-3.7,3.7c0,2,1.6,3.7,3.7,3.7
			h5.3c0.6,0,1.1,0.5,1.1,1.1c0,0.6-0.5,1.1-1.1,1.1h-8l-0.9,2.6l8.9,0c2,0,3.7-1.6,3.7-3.7c0-2-1.6-3.7-3.7-3.7h-5.3
			c-0.6,0-1.1-0.5-1.1-1.1c0-0.6,0.5-1.1,1.1-1.1h7.8l0.9-2.6H-663.8z M-604.6-381h-7c-3.3,0-6,2.7-6,6c0,3.3,2.7,6,6,6h7.3l0.9-2.6
			h-8.2c-1.4,0-2.5-0.8-3.1-2.1c1,0,10,0,10,0l0.9-2.6c0,0-9.9,0-10.9,0c0.5-1.2,1.7-2.1,3.1-2.1h6.6l0.9-2.6H-604.6z M-765.6-381
			h-7c-3.3,0-6,2.7-6,6c0,3.3,2.7,6,6,6h7.3l0.9-2.6h-8.2c-1.4,0-2.5-0.8-3.1-2.1c1,0,10,0,10,0l0.9-2.6c0,0-9.9,0-10.9,0
			c0.5-1.2,1.7-2.1,3.1-2.1h6.6l0.9-2.6H-765.6z M-791-381c-3.3,0-6,2.7-6,6c0,3.3,2.7,6,6,6h4.4c3.3,0,6-2.7,6-6v-1.3h-7.8v2.6
			c0,0,4,0,4.9,0c-0.5,1.2-1.7,2.1-3,2.1h-4.4c-1.9,0-3.4-1.5-3.4-3.4c0-1.9,1.5-3.4,3.4-3.4h4.4c1.1,0,2.2,0.6,2.8,1.5l2.2-1.4
			c-1.1-1.7-3-2.7-5-2.7H-791z"/>
		<g>
			<g>
				<path class="st0" d="M-692.4-371.8c0,0,7-7,7.9-7.9c0.4,0.4,1.8,1.8,1.8,1.8l1.2-8l-8,1.2c0,0,1.4,1.4,1.8,1.8
					c-0.8,0.8-5.4,5.4-5.4,5.4S-695.4-374.8-692.4-371.8z"/>
				<path class="st1" d="M-685.8-378.3c0,0-7,7-7.9,7.9c-0.4-0.4-1.8-1.8-1.8-1.8l-1.2,8l8-1.2c0,0-1.4-1.4-1.8-1.8
					c0.8-0.8,5.4-5.4,5.4-5.4S-682.7-375.3-685.8-378.3z"/>
			</g>
		</g>
	</g>
</g>
<text transform="matrix(1 0 0 1 -763.8173 -305.4983)" style="font-family:'Inter-Medium'; font-size:14px;">Device Distribution Form</text>
<text transform="matrix(1 0 0 1 -928.7353 -204.7058)"><tspan x="0" y="0" style="font-family:'Inter-Regular'; font-size:11px;">I am ......................................................., Dept ...................................., ID ........................ received the</tspan><tspan x="0" y="25" style="font-family:'Inter-Regular'; font-size:11px;">below device on.</tspan></text>
<text transform="matrix(1 0 0 1 -928.7353 -113.9999)" style="font-family:'Inter-Medium'; font-size:11px; text-decoration: underline;">Device Details:</text>
<text transform="matrix(1 0 0 1 -928.7353 -85.0587)"><tspan x="0" y="0" style="font-family:'Inter-Regular'; font-size:11px;">1. ViewSonic Monitor (2)</tspan><tspan x="0" y="23" style="font-family:'Inter-Regular'; font-size:11px;">2. CPU</tspan><tspan x="0" y="46" style="font-family:'Inter-Regular'; font-size:11px;">3. Keyboard (1)</tspan><tspan x="0" y="69" style="font-family:'Inter-Regular'; font-size:11px;">4. Mouse (1)</tspan><tspan x="0" y="92" style="font-family:'Inter-Regular'; font-size:11px;">5. Cosonic Headphone (1)</tspan></text>
<text transform="matrix(1 0 0 1 -864.3656 -210.2939)" style="font-family:'Inter-Medium'; font-size:11px;">Iftakhar Alam</text>
<text transform="matrix(1 0 0 1 -676.7169 -210.2941)" style="font-family:'Inter-Medium'; font-size:11px;">Software</text>
<text transform="matrix(1 0 0 1 -555.3913 -210.2943)" style="font-family:'Inter-Medium'; font-size:11px;">0340</text>
<text transform="matrix(1 0 0 1 -928.7353 187.5588)" style="font-family:'Inter-Regular'; font-size:11px;">Signature</text>
<text transform="matrix(1 0 0 1 -928.7353 288.5003)" style="font-family:'Inter-Regular'; font-size:11px;">Head of the Dept.</text>
<g>
	<g>
		<line class="st2" x1="-928.7" y1="167.4" x2="-927.7" y2="167.4"/>
		<line class="st3" x1="-925.7" y1="167.4" x2="-781.9" y2="167.4"/>
		<line class="st2" x1="-780.9" y1="167.4" x2="-779.9" y2="167.4"/>
	</g>
</g>
<g>
	<g>
		<line class="st2" x1="-928.7" y1="261" x2="-927.7" y2="261"/>
		<line class="st3" x1="-925.7" y1="261" x2="-781.9" y2="261"/>
		<line class="st2" x1="-780.9" y1="261" x2="-779.9" y2="261"/>
	</g>
</g>
<rect x="-190.8" y="-95.5" class="st2" width="70" height="70"/>
<g>
	<g>
		<path class="st0" d="M24.7,36.3c0,0,12.3-12.3,13.9-13.9c0.7,0.7,3.2,3.2,3.2,3.2l2.1-14.1l-14.1,2.1c0,0,2.5,2.5,3.2,3.2
			c-1.5,1.5-9.5,9.5-9.5,9.5S19.3,30.9,24.7,36.3z"/>
		<path class="st1" d="M36.3,24.7c0,0-12.3,12.3-13.9,13.9c-0.7-0.7-3.2-3.2-3.2-3.2l-2.1,14.1l14.1-2.1c0,0-2.5-2.5-3.2-3.2
			c1.5-1.5,9.5-9.5,9.5-9.5S41.7,30.1,36.3,24.7z"/>
	</g>
</g>
<circle class="st4" cx="30.5" cy="30.5" r="29.6"/>
<circle class="st5" cx="30.5" cy="30.5" r="28.1"/>
</svg>
